# xmcd
# Copyright (C) 1995-1998 Ti Kan
#
# Track frame offsets:
#       150
#       17278
#       36725
#       54382
#       78563
#       99484
#       123575
#       132798
#       148265
#       167730
#       183289
#       194303
#       220145
#
# Disc length: 3200 seconds
#
# Revision: 0
# Processed by: cddbd v1.5.2PL0 Copyright (c) Steve Scherf et al.
# Submitted via: CD-Transfer v1.0
#
DISCID=b70c7e0d
DTITLE=Bonamassa, Joe - J. Bonamassa
DYEAR=10
DGENRE=
TTITLE0=Steal Your Heart Away
TTITLE1=I Know A Place
TTITLE2=When The Fire Hits The Sea
TTITLE3=Quarryman's Lament
TTITLE4=Spanish Boots
TTITLE5=Bird On A Wire
TTITLE6=Three Times A Fool
TTITLE7=Night Life
TTITLE8=Wandering Earth
TTITLE9=Look Over Yonders Wall
TTITLE10=Athens To Athens
TTITLE11=Blue And Evil
TTITLE12=Baby, You Gotta Change Your Mind
EXTD=
EXTT0=
EXTT1=
EXTT2=
EXTT3=
EXTT4=
EXTT5=
EXTT6=
EXTT7=
EXTT8=
EXTT9=
EXTT10=
EXTT11=
EXTT12=
PLAYORDER=
